# xmcd
#
# Track frame offsets:
#	150
#	12413
#	22848
#	32673
#	44280
#	54987
#	66237
#	76025
#	87819
#	97982
#	111342
#	121083
#	132577
#	146190
#	164490
#	177597
#	191707
#	201823
#	213552
#	227840
#	244522
#	254366
#	267454
#	279726
#	293473
#	309289
#	319471
#	331443
#	343181
#
# Disc length: 4738 seconds
#
# Revision: 1
# Processed by: cddbd v1.5.2PL0 Copyright (c) Steve Scherf et al.
# Submitted via: audiograbber 1.83.01
#
DISCID=af12801d
DTITLE=Sam Cook - Twistin' The Night Away 1962 and Swing Low  1960
DYEAR=2012
DGENRE=R&B
TTITLE0=Twistin' The Night Away
TTITLE1=Sugar Dumpling
TTITLE2=Twistin' In The Kitchen (With Dinah)
TTITLE3=Somebody's Gonna Miss Me
TTITLE4=A Whole Lotta Woman
TTITLE5=The Twist
TTITLE6=Twistin' In The Old Town Tonight
TTITLE7=Movin' And A'Groovin'
TTITLE8=Camptown Twist
TTITLE9=Somebody Have Mercy
TTITLE10=Sooth Me
TTITLE11=That's It, I Quit, I'm Movin' On
TTITLE12=Swing Low, Sweet Chariot
TTITLE13=I'm Just A Country Boy
TTITLE14=They Call The Wind Maria
TTITLE15=Twilight On The Trail
TTITLE16=If I Had You
TTITLE17=Chaing Gang
TTITLE18=Grandfather's Clock
TTITLE19=I Dream Of Jeanie With The Light Brown Hair
TTITLE20=Pray
TTITLE21=Long, Long Ago
TTITLE22=You Belong To Me
TTITLE23=Goin' Home
TTITLE24=Unchained Melody
TTITLE25=Talkin' Trash
TTITLE26=Sad Mood
TTITLE27=Havin A Party
TTITLE28=Bring It Home To Me
EXTD=
EXTT0=
EXTT1=
EXTT2=
EXTT3=
EXTT4=
EXTT5=
EXTT6=
EXTT7=
EXTT8=
EXTT9=
EXTT10=
EXTT11=
EXTT12=
EXTT13=
EXTT14=
EXTT15=
EXTT16=
EXTT17=
EXTT18=
EXTT19=
EXTT20=
EXTT21=
EXTT22=
EXTT23=
EXTT24=
EXTT25=
EXTT26=
EXTT27=
EXTT28=
PLAYORDER=
